<?xml version="1.0" encoding="utf-8"?>

<!DOCTYPE svg PUBLIC "-//W3C//DTD SVG 1.1//EN" "http://www.w3.org/Graphics/SVG/1.1/DTD/svg11.dtd">
<svg version="1.1" id="Layer_1" xmlns="http://www.w3.org/2000/svg" xmlns:xlink="http://www.w3.org/1999/xlink" x="0px" y="0px"
	 viewBox="0 0 1654.416 1677.752" enable-background="new 0 0 1654.416 1677.752" xml:space="preserve">
<g>
	<path d="M1585.569,239.84c-30.561,3.603,39.318-41.06,29.347-80.257c-1.572-6.18-9.845-12.064-15.689-8.654
		c-5.272,3.076-9.664,6.628-16.689,6.648c-15.131,0.043-30.116,22.045-41.362,29.592c-11.994,8.049-21.686,18.445-30.676,29.687
		c-3.286,4.109-6.447,10.486-11.441,10.787c-1.003,0.06-47.231,5.375-73.87,0.853c-20.231-3.434-101.45,2.929-110.462,7.115
		c-16.768,7.789-26.85-7.331-64.783-9.671c-30.078-1.856-62.673-22.562-108.912-14.299c-18.311,3.272-31.916,10.97-13.745-12.37
		c21.958-28.204,17.676-74.199,13.399-84.946c-20.256-50.899-89.245-22.084-96.481-41.107
		c-13.614-35.791-70.237-37.461-76.87-33.436c-10.799,6.552-53.591,18.571-51.578,45.615c0.271,3.64-8.165,12.36-11.612,12.102
		c-119.321-8.934-86.303,102.797-40.443,135.976c6.902,4.993,15.095,7.594,22.187,12.275c-2.379,3.157-5.468,4.864-8.524,3.428
		c-8.805-4.139-69.546-5.897-110.115-9.135c-62.785-5.011-18.144-8.861-126.382-28.875c-73.247-13.542-137.126-20.62-158.071-36.128
		c-37.748-27.95-16.344-8.389-64.209-31.213c-4.431-2.113-10.538-2.198-15.071,0.307c-8.581,4.741-15.583-12.975-26.02-2.675
		c-1,0.987-12.794-0.917-7.903,7.564c2.288,3.966,2.213,7.92,2.284,12.089c0.494,28.919,100.241,64.7,57.883,61.837
		c-15.729-1.062-28.897,10.746-28.887,17.85c0.011,8.099,6.551-0.609,21.542-1.1c20.543-0.673,41.354,2.302,61.496-4.585
		c29.507-10.09,72.805,7.832,99.993,22.849c106.408,58.77,292.092,48.308,300.739,88.474c0.215,1,13.862,50.457,9.697,70.05
		c-0.292,1.376,0.292,3.632,1.307,4.471c7.26,6.001,1.148,12.209,3.511,15.997c4.069,6.524-6.091,17.054,0.233,35.139
		c3.643,10.416-6.278,6.338-11.246,16.639c-3.144,6.519-12.319,7.126-14.504,14.684c-0.129,0.444-1.573,0.96-2.161,0.751
		c-8.749-3.097-50.568,12.998-62.18,12.409c-11.357-0.576-8.27,8.927-12.959,8.365c-1.808-0.217-28.088,5.516-29.327,6.029
		c-14.642,6.06-7.272-7.169-47.367-3.771c-17.134,1.452-34.262-0.465-51.424-0.181c-155.929,2.583-62.905,18.943-131.388-4.602
		c-44.494-15.298-57.508-0.315-76.268,0.608c-11.267,0.554-21.96-3.269-33.267-2.995c-21.862,0.531-104.89,0.55-107.389,0.08
		c-31.83-5.986-33.103-4.035-34.94-0.278c-11.268,23.04-23.276-5.432-33.643,14.478c-2.657,5.102-3.293,11.089-7.501,16.108
		c0.343-7.451-8.061-1.108-12.32-1.598c-61.225-7.046-30.515,4.832-80.606-7.306c-14.773-3.58-53.188-5.044-56.287-4.277
		c-41.407,10.254-21.099-3.764-39.997,19.09c-6.495,7.854-24.459,20.814-12.677,31.538c14.315,13.028,17.727,4.95,24.338,7.908
		c22.059,9.87,48.722,7.003,51.916,5.79c17.773-6.745,19.148,5.312,28.958,14.535c12.526,11.776,30.327-5.435,42.127-7.153
		c33.897-4.936,38.31,4.353,54.071,2.818c10.613-1.033,8.163,25.721,16.932,42.181c0.414,0.778,0.446,2.236-0.016,2.931
		c-8.779,13.183,17.921,109.836,19.344,118.008c2.99,17.172,9.139,18.146,22.451,62.719
		c35.094,117.505,84.782,167.561,84.782,167.561c3.481,14.972,59.338,110.303,95.406,131.499
		c24.933,14.653,36.494,68.162,175.706,111.578c11.801,3.68,163.689,58.402,160.313,34.085c-0.997-7.177,5.349-3.976,5.558-3.735
		c3.874,4.476,18.383-0.254,26.156,6.262c12.603,10.565,28.349-6.105,29.408,4.563c12.017,121.046,21.084,47.864,22.014,204.011
		c0.06,10.076-5.083,18.24-7.869,27.224c-3.683,11.879-17.288,17.553-2.728,34.341c8.281,9.547,21.749,22.742,14.255,57.837
		c-1.437,6.729,6.436,17.702,12.729,16.96c2.962-0.349,28.175-0.739,37.734,6.66c10.42,8.065,28.047-5.106,23.839-12.268
		c-2.795-4.758-2.033-12.312-10.068-13.072c-2.356-0.223-9.254-29.717-9.472-30.718c-22.9-105.156-2.419-138.369,10.751-318.997
		c0.295-4.045-1.05-8.965,1.265-12.156c6.538-9.012,11.926-19.112,22.258-24.923c19.951-11.22,10.87-21.616,19.395-25.449
		c5.451-2.451,8.84-4.795,5.62-26.259c-30.569-203.732-14.606-151.272-11.582-247.278c1.222-38.807-0.716-77.681,2.322-116.463
		c0.068-0.87,4.961-100.301,5.039-111.16c0.092-12.892,6.625-2.71,7.936-22.243c0.739-11.008-2.167-18.356,1.343-24.203
		c21.743-36.223,27.224-91.208,43.716-114.751c13.37-19.086,3.752-14.61,11.942-35.875c5.037-13.081,4.672-20.067,8.866-27.666
		c27.211-49.306,25.371-112.683,39.331-127.796c21.784-23.586,1.067-42.3,18.133-45.906c1.081-0.228,49.283-9.52,55.541-8.438
		c147.02,25.422,240.773-23.027,322.411-11.132c22.258,3.243,50.493-26.919,77.045-30.031
		C1607.394,248.933,1597.83,238.395,1585.569,239.84z"/>
</g>
</svg>
